<svg id="Capa_1" enable-background="new 0 0 512.044 512.044" height="512" viewBox="0 0 512.044 512.044" width="512" xmlns="http://www.w3.org/2000/svg"><g><g><g><path d="m453.701 473.198h-395.262c-39.383 0-63.788-42.833-43.664-76.716l197.629-332.775c19.669-33.119 67.634-33.166 87.33 0l197.631 332.775c20.109 33.859-4.254 76.716-43.664 76.716z" fill="#938493"/></g><path d="m58.774 396.481 197.629-332.774c5.45-9.178 13.078-15.804 21.67-19.9-22.428-10.694-51.445-4.051-65.668 19.9l-197.63 332.774c-20.124 33.883 4.28 76.716 43.663 76.716h43.999c-39.383.001-63.787-42.833-43.663-76.716z" fill="#7b6c79"/><path d="m241.972 81.266-197.63 332.775c-6.496 10.935 1.372 24.769 14.097 24.769h395.262c12.715 0 20.596-13.826 14.097-24.769l-197.631-332.774v-.001c-6.351-10.694-21.834-10.711-28.195 0z" fill="#ffd500"/><path d="m88.341 414.041 189.728-319.469-7.902-13.305v-.001c-6.351-10.694-21.834-10.711-28.195 0l-197.63 332.775c-6.495 10.935 1.372 24.769 14.097 24.769h43.999c-12.725 0-20.593-13.834-14.097-24.769z" fill="#fbc700"/><path d="m255.946 184.9c-12.887 0-23.333 10.447-23.333 23.333v80.342c0 12.887 10.447 23.333 23.333 23.333 12.887 0 23.333-10.447 23.333-23.333v-80.342c0-12.887-10.446-23.333-23.333-23.333z" fill="#938493"/><circle cx="255.946" cy="368.243" fill="#938493" r="23.333"/><g fill="#7b6c79"><path d="m258.946 288.575v-80.342c0-8.001 4.029-15.059 10.167-19.262-3.748-2.567-8.281-4.071-13.167-4.071-12.887 0-23.333 10.447-23.333 23.333v80.342c0 12.887 10.447 23.333 23.333 23.333 4.886 0 9.419-1.504 13.167-4.071-6.138-4.203-10.167-11.261-10.167-19.262z"/><path d="m258.946 368.243c0-8.001 4.029-15.059 10.167-19.262-3.748-2.567-8.281-4.071-13.167-4.071-12.886 0-23.333 10.447-23.333 23.333 0 12.887 10.447 23.333 23.333 23.333 4.886 0 9.419-1.504 13.167-4.071-6.138-4.203-10.167-11.261-10.167-19.262z"/></g></g><g><path d="m306.133 59.878c-22.574-38.013-77.619-38.071-100.227 0l-197.628 332.773c-23.093 38.879 4.858 88.046 50.111 88.046h395.263c45.221 0 73.22-49.136 50.112-88.045zm147.519 405.82h-395.263c-33.587 0-54.378-36.486-37.215-65.387l197.629-332.774c16.768-28.234 57.641-28.275 74.434 0l197.631 332.774c17.149 28.876-3.603 65.387-37.216 65.387z"/><path d="m255.896 399.076c17.002 0 30.834-13.832 30.834-30.833s-13.832-30.833-30.834-30.833c-17.001 0-30.833 13.832-30.833 30.833s13.832 30.833 30.833 30.833zm0-46.667c8.73 0 15.834 7.103 15.834 15.833s-7.104 15.833-15.834 15.833-15.833-7.103-15.833-15.833 7.103-15.833 15.833-15.833z"/><path d="m276.565 77.436c-9.252-15.582-31.82-15.611-41.091 0l-197.63 332.775c-9.468 15.942 1.991 36.099 20.545 36.099h180.13c4.143 0 7.5-3.358 7.5-7.5s-3.357-7.5-7.5-7.5h-180.13c-6.907 0-11.181-7.491-7.648-13.439l197.63-332.774c3.459-5.822 11.853-5.801 15.298 0l197.631 332.774c3.529 5.943-.739 13.438-7.648 13.438h-180.133c-4.143 0-7.5 3.358-7.5 7.5s3.357 7.5 7.5 7.5h180.133c18.539 0 30.019-20.148 20.545-36.098z"/><path d="m279.23 240.482c4.143 0 7.5-3.358 7.5-7.5v-24.749c0-17.001-13.832-30.833-30.834-30.833-17.001 0-30.833 13.832-30.833 30.833v80.342c0 17.001 13.832 30.833 30.833 30.833 17.002 0 30.834-13.832 30.834-30.833v-20.593c0-4.142-3.357-7.5-7.5-7.5s-7.5 3.358-7.5 7.5v20.593c0 8.73-7.104 15.833-15.834 15.833s-15.833-7.103-15.833-15.833v-80.342c0-8.73 7.103-15.833 15.833-15.833s15.834 7.103 15.834 15.833v24.749c0 4.142 3.357 7.5 7.5 7.5z"/></g></g></svg>